<?xml version="1.0" standalone="no"?>
<!DOCTYPE svg PUBLIC "-//W3C//DTD SVG 20010904//EN"
 "http://www.w3.org/TR/2001/REC-SVG-20010904/DTD/svg10.dtd">
<svg version="1.0" xmlns="http://www.w3.org/2000/svg"
 width="350.000000pt" height="350.000000pt" viewBox="0 0 350.000000 350.000000"
 preserveAspectRatio="xMidYMid meet">

<circle cx="175" cy="175" r="170" fill="none" stroke="#ffffff" stroke-width="2%"/>
<g transform="translate(0.000000,350.000000) scale(0.100000,-0.100000)"
fill="#ffffff" stroke="none">
<path  d="M1010 3126 c-261 -48 -470 -234 -562 -501 -100 -290 -61 -648 113
-1042 22 -50 25 -53 60 -53 21 0 49 -5 63 -11 20 -10 30 -9 51 5 14 9 25 25
25 35 0 10 13 36 29 59 l30 40 -24 49 c-123 251 -177 515 -142 694 15 73 60
188 89 225 207 268 580 257 884 -26 81 -76 127 -76 212 3 57 53 166 134 191
142 15 4 20 24 30 113 14 121 37 179 80 205 38 22 66 22 106 -3 44 -27 64 -73
71 -162 l7 -74 81 -12 c185 -27 323 -152 382 -347 30 -96 24 -319 -10 -450
-27 -100 -62 -199 -79 -223 -18 -23 1 -24 32 -1 35 25 90 22 124 -8 24 -22 56
-90 57 -120 0 -50 19 -16 63 115 66 200 82 294 82 497 0 222 -14 290 -96 453
-53 105 -72 134 -138 200 -43 42 -91 84 -107 92 -16 8 -40 22 -54 31 -42 28
-161 66 -244 79 -100 15 -193 6 -321 -32 -83 -25 -236 -95 -255 -118 -3 -3
-29 -23 -58 -43 -47 -33 -56 -37 -72 -25 -251 185 -477 254 -700 214z"/>
<path d="M2156 2968 c-8 -13 -18 -54 -21 -93 -4 -38 -10 -101 -15 -140 -5 -38
-16 -135 -25 -215 -9 -80 -27 -242 -41 -360 -13 -118 -31 -280 -39 -360 -9
-80 -21 -192 -28 -250 l-12 -105 -66 -3 c-75 -3 -81 -10 -94 -96 -4 -25 -11
-48 -15 -51 -4 -2 -13 21 -20 53 -21 91 -22 92 -95 92 -75 0 -61 -26 -130 244
-25 99 -53 188 -62 198 -19 21 -46 23 -61 5 -8 -9 -122 -424 -122 -444 0 -2
-79 -2 -177 -1 l-176 3 -18 54 c-22 63 -35 81 -59 81 -25 0 -46 -28 -65 -87
-15 -46 -21 -53 -44 -53 -29 0 -45 -19 -56 -68 -9 -42 -21 -41 -28 3 -11 65
-14 66 -233 63 -185 -3 -198 -4 -208 -23 -6 -11 -15 -23 -21 -27 -7 -6 -7 -11
0 -15 6 -5 15 -17 21 -28 10 -19 23 -20 181 -23 l169 -2 27 -103 c31 -114 44
-145 69 -161 30 -18 50 16 83 142 28 104 34 117 55 120 13 2 30 11 38 19 14
13 16 13 24 -1 8 -14 40 -16 243 -16 277 0 248 -16 290 160 15 63 31 119 35
123 7 8 70 -204 70 -235 0 -29 34 -47 94 -50 l59 -3 38 -160 c29 -120 44 -164
60 -177 39 -32 73 4 82 89 2 21 15 86 27 146 l23 107 63 0 c55 0 65 3 78 23
12 19 33 147 34 214 0 12 12 115 26 230 14 114 28 237 31 273 8 94 36 314 41
319 2 2 5 -2 8 -10 5 -17 43 -390 56 -549 17 -209 50 -473 61 -487 15 -17 143
-18 156 0 5 6 20 62 32 122 34 164 34 164 63 15 15 -74 32 -137 40 -141 7 -5
45 -9 83 -9 61 0 72 3 84 22 l13 21 17 -21 c16 -22 20 -22 231 -20 212 3 215
3 225 26 5 12 13 22 17 22 4 0 -1 15 -11 33 l-18 32 -183 5 -184 5 -24 125
c-13 68 -28 130 -34 137 -14 17 -53 17 -67 0 -6 -8 -22 -69 -36 -137 -14 -68
-27 -126 -30 -128 -13 -14 -24 27 -44 163 -21 138 -62 339 -72 352 -6 7 -22
13 -35 13 -32 0 -49 -36 -67 -150 -9 -52 -25 -138 -36 -190 -10 -52 -22 -112
-26 -133 -11 -66 -22 -31 -34 110 -15 179 -55 584 -87 893 -14 135 -29 293
-34 352 -8 113 -19 138 -59 138 -11 0 -27 -10 -35 -22z"/>
<path d="M860 1220 c-4 -8 -11 -36 -15 -62 -8 -54 -9 -52 114 -208 147 -185
315 -368 463 -501 77 -70 92 -79 125 -79 82 1 148 106 124 197 -9 31 -45 74
-174 204 -89 90 -207 218 -262 284 -55 66 -106 126 -112 133 -7 7 -16 19 -20
26 -6 10 -40 15 -121 18 -94 3 -115 1 -122 -12z"/>
</g>
</svg>
